<svg width="32" height="32" viewBox="0 0 32 32" fill="none" xmlns="http://www.w3.org/2000/svg">
<rect width="32" height="32" rx="16" fill="#FAF4EE" fill-opacity="0.16"/>
<path d="M23.3032 7.37598C24.0025 7.37615 24.5697 7.92933 24.5698 8.61133V23.3887C24.5697 24.0709 24.0025 24.6239 23.3032 24.624H8.69678C7.99732 24.624 7.43028 24.071 7.43018 23.3887V8.61133C7.43028 7.92923 7.99732 7.37598 8.69678 7.37598H23.3032ZM10.0366 14.0254V21.8145H12.6255V14.0254H10.0366ZM18.98 13.8428C17.6067 13.8428 16.991 14.5982 16.647 15.1289V14.0254H14.0581C14.0921 14.7562 14.0581 21.8145 14.0581 21.8145H16.647V17.4648C16.647 17.2321 16.6636 16.9994 16.7319 16.833C16.9191 16.368 17.345 15.8867 18.0601 15.8867C18.9967 15.8868 19.3715 16.6006 19.3716 17.6475V21.8145H21.9595V17.3486C21.9595 14.9565 20.683 13.8429 18.98 13.8428ZM16.647 15.1553H16.6294C16.635 15.1465 16.6412 15.1379 16.647 15.1289V15.1553ZM11.3481 10.2715C10.4626 10.2715 9.8833 10.853 9.8833 11.6172C9.88339 12.3645 10.4454 12.9628 11.314 12.9629H11.3315C12.2339 12.9627 12.7953 12.3644 12.7954 11.6172C12.7786 10.853 12.2338 10.2715 11.3481 10.2715Z" fill="white"/>
</svg>
