<svg xmlns="http://www.w3.org/2000/svg" width="33" height="32" viewBox="0 0 33 32" fill="none">
  <path fill-rule="evenodd" clip-rule="evenodd" d="M16.5 32C25.3384 32 32.5 24.8384 32.5 16C32.5 7.168 25.3384 0 16.5 0C7.6616 0 0.5 7.1616 0.5 16C0.5 24.8384 7.6616 32 16.5 32ZM19.2665 13.3644H23.3997V12.2245H20.6677C20.7445 11.7929 21.0068 11.5482 21.5442 11.2777L22.0497 11.0201C22.9455 10.5564 23.4253 10.0347 23.4253 9.17818C23.4253 8.64363 23.2206 8.21857 22.8047 7.90944C22.4016 7.6003 21.9089 7.45217 21.3395 7.45217C20.8852 7.45217 20.4693 7.5681 20.0918 7.80639C19.7207 8.04468 19.4392 8.34094 19.2665 8.71448L20.0598 9.51308C20.367 8.88837 20.8084 8.57923 21.3971 8.57923C21.8898 8.57923 22.1969 8.83684 22.1969 9.19106C22.1969 9.48732 22.0497 9.73849 21.4803 10.0283L21.1604 10.1893C20.4565 10.55 19.9703 10.9557 19.6887 11.4194C19.4072 11.8767 19.2665 12.4627 19.2665 13.1712V13.3644ZM18.5115 14.6782H23.035L25.3 18.6197L23.0414 22.5612L20.7765 18.6197H16.2529L18.5115 14.6782ZM11.4222 15.9985C11.4222 18.8966 13.7639 21.2538 16.6432 21.2538C17.942 21.2538 19.1321 20.7708 20.0407 19.985L22.0241 23.437C20.5141 24.5448 18.6522 25.2017 16.6432 25.2017C11.5885 25.2017 7.50003 21.0799 7.50003 15.9985C7.50003 10.9235 11.5949 6.8017 16.6432 6.8017C17.2574 6.8017 17.8524 6.85966 18.4347 6.97559L16.6432 10.7432C13.7639 10.7432 11.4222 13.1003 11.4222 15.9985Z" fill="#FF492C"/>
</svg>