<svg xmlns:xlink="http://www.w3.org/1999/xlink" class="MuiSvgIcon-root MuiSvgIcon-fontSizeMedium mui-1ammzou" focusable="false" aria-hidden="true" viewBox="0 0 14 19" width="14" height="19" fill="none" xmlns="http://www.w3.org/2000/svg"><path d="M13.9995 6.05826H11.4041V4.50969C11.4041 2.25171 9.7517 0.235975 7.50238 0.0196938C4.9243 -0.222541 2.75284 1.80185 2.75284 4.32801V6.05826H0.157471V18.17H13.9995V6.05826ZM7.07846 13.8444C6.12683 13.8444 5.34822 13.0658 5.34822 12.1141C5.34822 11.1625 6.12683 10.3839 7.07846 10.3839C8.0301 10.3839 8.80871 11.1625 8.80871 12.1141C8.80871 13.0658 8.0301 13.8444 7.07846 13.8444ZM4.48309 6.05826V4.32801C4.48309 2.89191 5.64236 1.73264 7.07846 1.73264C8.51457 1.73264 9.67384 2.89191 9.67384 4.32801V6.05826H4.48309Z" fill="#D6C9FD"></path></svg>