<svg xmlns:xlink="http://www.w3.org/1999/xlink" class="MuiSvgIcon-root MuiSvgIcon-fontSizeMedium mui-icy6xd" focusable="false" aria-hidden="true" viewBox="0 0 82 19" width="82" height="19" fill="none" xmlns="http://www.w3.org/2000/svg"><path d="M10.0725 0C15.0911 0 19.1574 4.07006 19.1575 9.08496C19.1575 14.1035 15.0911 18.1699 10.0725 18.1699C5.05397 18.1699 0.987549 14.1035 0.987549 9.08496C0.98757 4.06644 5.05399 2.08647e-05 10.0725 0ZM10.1536 3.8623C7.28724 3.86245 4.96218 6.20246 4.96216 9.08398C4.96216 11.9692 7.2836 14.3094 10.1536 14.3096C11.2943 14.3096 12.3518 13.9366 13.2092 13.3076L12.0833 11.3477C11.5674 11.7938 10.8911 12.0684 10.1536 12.0684C8.51882 12.0682 7.1897 10.7295 7.1897 9.08398C7.18972 7.43849 8.51884 6.09975 10.1536 6.09961L11.1711 3.96094C10.8405 3.89511 10.5023 3.8623 10.1536 3.8623ZM9.93188 10.5723H12.5012L13.7864 12.8105L15.0696 10.5723L13.7834 8.33398H11.2151L9.93188 10.5723ZM12.8206 4.23145C12.5626 4.23145 12.3259 4.29731 12.1116 4.43262C11.9011 4.56787 11.7418 4.73629 11.6438 4.94824L12.094 5.40137C12.2683 5.04691 12.5188 4.87122 12.8528 4.87109C13.1325 4.87109 13.3069 5.01762 13.3069 5.21875C13.3069 5.38693 13.2239 5.52982 12.9006 5.69434L12.719 5.78516C12.3194 5.98994 12.0429 6.22108 11.8831 6.48438C11.7234 6.74394 11.6438 7.07649 11.6438 7.47852V7.58789H13.9905V6.94141H12.4387C12.4823 6.69639 12.6316 6.55691 12.9368 6.40332L13.2239 6.25684C13.7323 5.99358 14.0051 5.69721 14.0051 5.21094C14.005 4.90772 13.8885 4.66664 13.6526 4.49121C13.4237 4.3157 13.1439 4.23146 12.8206 4.23145Z" fill="#FFCF25"></path><path d="M32.1575 12.1218L35.2475 14.085L34.4275 10.385L37.1575 7.89552L33.5625 7.57447L32.1575 4.08499L30.7525 7.57447L27.1575 7.89552L29.8875 10.385L29.0675 14.085L32.1575 12.1218Z" fill="#FFCF25"></path><path d="M43.1575 12.1218L46.2475 14.085L45.4275 10.385L48.1575 7.89552L44.5625 7.57447L43.1575 4.08499L41.7525 7.57447L38.1575 7.89552L40.8875 10.385L40.0675 14.085L43.1575 12.1218Z" fill="#FFCF25"></path><path d="M65.1575 12.1218L68.2475 14.085L67.4275 10.385L70.1575 7.89552L66.5625 7.57447L65.1575 4.08499L63.7525 7.57447L60.1575 7.89552L62.8875 10.385L62.0675 14.085L65.1575 12.1218Z" fill="#FFCF25"></path><path d="M54.1575 12.1218L57.2475 14.085L56.4275 10.385L59.1575 7.89552L55.5625 7.57447L54.1575 4.08499L52.7525 7.57447L49.1575 7.89552L51.8875 10.385L51.0675 14.085L54.1575 12.1218Z" fill="#FFCF25"></path><path d="M76.1575 12.1218L79.2475 14.085L78.4275 10.385L81.1575 7.89552L77.5625 7.57447L76.1575 4.08499L74.7525 7.57447L71.1575 7.89552L73.8875 10.385L73.0675 14.085L76.1575 12.1218Z" fill="#FFCF25"></path></svg>