<svg xmlns:xlink="http://www.w3.org/1999/xlink" class="MuiSvgIcon-root MuiSvgIcon-fontSizeMedium mui-gn6c0e" focusable="false" aria-hidden="true" viewBox="0 0 56 57" xmlns="http://www.w3.org/2000/svg" width="56" height="57"><path fill-rule="evenodd" clip-rule="evenodd" d="M28 56.5C43.4672 56.5 56 43.9672 56 28.5C56 13.044 43.4672 0.5 28 0.5C12.5328 0.5 0 13.0328 0 28.5C0 43.9672 12.5328 56.5 28 56.5ZM32.8413 23.8874H40.0745V21.8925H35.2934C35.4278 21.1374 35.8868 20.7091 36.8274 20.2358L37.7119 19.785C39.2795 18.9735 40.1193 18.0606 40.1193 16.5616C40.1193 15.6261 39.761 14.8823 39.0332 14.3413C38.3278 13.8003 37.4656 13.5411 36.4691 13.5411C35.6741 13.5411 34.9463 13.7439 34.2857 14.1609C33.6362 14.578 33.1436 15.0964 32.8413 15.7501L34.2297 17.1476C34.7671 16.0544 35.5397 15.5134 36.5698 15.5134C37.432 15.5134 37.9695 15.9642 37.9695 16.5841C37.9695 17.1026 37.7119 17.5421 36.7154 18.0493L36.1556 18.3311C34.9239 18.9622 34.0729 19.6722 33.5803 20.4837C33.0876 21.2839 32.8413 22.3096 32.8413 23.5493V23.8874ZM31.52 26.1866H39.4363L43.4 33.0842L39.4475 39.9818L35.4837 33.0842H27.5675L31.52 26.1866ZM19.1137 28.4971C19.1137 33.5688 23.2118 37.6939 28.2505 37.6939C30.5235 37.6939 32.6061 36.8486 34.1961 35.4736L37.6672 41.5146C35.0247 43.4531 31.7663 44.6027 28.2505 44.6027C19.4049 44.6027 12.25 37.3896 12.25 28.4971C12.25 19.6159 19.4161 12.4027 28.2505 12.4027C29.3254 12.4027 30.3667 12.5042 31.3856 12.707L28.2505 19.3003C23.2118 19.3003 19.1137 23.4253 19.1137 28.4971Z" fill-opacity="0.4" fill="#FAF4EE"></path></svg>